<svg xmlns="http://www.w3.org/2000/svg" width="59" height="24" fill="none"><path fill="#47474F" d="M24.218 15.803V7.856h1.905v6.4h3.173v1.547zM33.757 11.251h3.307v4.196a9 9 0 0 1-1.362.34 9.3 9.3 0 0 1-1.598.128q-1.76 0-2.774-1.03-1.014-1.029-1.015-3.066 0-1.247.482-2.16a3.35 3.35 0 0 1 1.418-1.413q.936-.501 2.293-.501.684 0 1.328.133.645.134 1.138.357l-.617 1.502a4.5 4.5 0 0 0-.857-.306 4 4 0 0 0-.992-.117q-.729 0-1.228.329-.498.328-.745.901a3.3 3.3 0 0 0-.247 1.308q0 1.146.477 1.82.476.673 1.485.673.28 0 .544-.033.263-.034.442-.067v-1.47h-1.48zM41.492 7.856q1.535 0 2.27.657.734.657.734 1.848 0 .7-.292 1.319-.29.617-.964 1.001-.672.384-1.827.384h-.672v2.738h-1.906V7.856zm-.068 1.547h-.683v2.115h.504q.583 0 .953-.256t.37-.846q0-1.013-1.144-1.013M52.6 11.707q0 2.049-1.143 3.072t-3.15 1.024h-2.41V7.856h2.634q1.895 0 2.982.985t1.087 2.866m-1.973.067q0-1.213-.52-1.792-.522-.579-1.52-.579h-.784v4.842h.616q1.133 0 1.67-.618.538-.618.538-1.853M20.339 12.827a10.5 10.5 0 0 1-6.27 7.127.64.64 0 0 1-.477 0 10.5 10.5 0 0 1-6.27-7.127l6.182 4.288a.57.57 0 0 0 .654 0zm-6.75-8.78a.64.64 0 0 1 .484 0l6.198 2.544c.237.097.39.324.39.577v3.091q0 .555-.058 1.097l-6.446-4.47a.57.57 0 0 0-.653 0l-6.446 4.47A10 10 0 0 1 7 10.26V7.168c0-.253.154-.48.39-.577z"/><path fill="#47474F" d="M10.53 11.518c2.198-.105 4.8.68 6.23 2.14-.567 1.076-1.666 1.806-2.93 1.806-1.84 0-3.334-1.55-3.334-3.464q0-.246.033-.482m3.2 2.406a.336.336 0 0 0-.263.33c0 .188.148.339.326.339a.33.33 0 0 0 .325-.338.33.33 0 0 0-.389-.332m1.092-.425a.335.335 0 0 0-.262.331c0 .183.142.338.325.338.177 0 .326-.15.326-.338 0-.212-.189-.374-.39-.331m-1.67-.597a.335.335 0 0 0-.262.332c0 .188.147.338.326.338a.33.33 0 0 0 .325-.338.33.33 0 0 0-.39-.332M17.146 12.375q.02-.184.02-.375c0-1.913-1.493-3.464-3.335-3.464-1.222 0-2.29.683-2.87 1.7 2.165.023 4.625.893 6.185 2.14"/></svg>